Simulation
nRows=16
nColumns=15
endheader
time  TH_x TH_y TH_z SC_y  SC_z  SC_x  AC_y  AC_z  AC_x  GH_y  GH_z  GH_yy  EL_x  PS_y
8.6175  0.000000  0.000000  0.000000  -35.15767652823039  2.6734339351238754  -7.586174433892533  41.28619186034865  13.320614867473871  4.461180569371635  112.53747489651326  4.983683201671257  -97.34186355353955  20.58179451753842  120.000000
8.67495  0.000000  0.000000  0.000000  -34.73593402050346  2.5412634836552788  -7.999561434135423  40.745044537283846  13.236377781286086  4.145509308303085  102.67367621382795  5.489160557057923  -87.51176614562226  20.51146819090059  120.000000
8.7324  0.000000  0.000000  0.000000  -34.30057548063094  2.326276368101771  -8.514467544753506  40.26498372915065  13.224019029275187  3.873671419511025  93.47441164845254  6.561776825356718  -78.18516417545865  20.612584479410422  120.000000
8.78985  0.000000  0.000000  0.000000  -33.89939275697753  2.0440293308100292  -9.08953646036064  39.87712888281567  13.278417885035884  3.678867528098295  86.61506508147998  8.280447202162023  -71.09118707402962  20.869030927173263  120.000000
8.8473  0.000000  0.000000  0.000000  -33.577987753617926  1.7436771484378413  -9.681465637071211  39.602330238526775  13.40065303661165  3.596191939929979  82.31564240395012  10.646591799218259  -66.54976474832239  21.22272629026346  120.000000
8.90475  0.000000  0.000000  0.000000  -33.365532924074074  1.4984912045209784  -10.24424462107917  39.44667275501694  13.595989331012419  3.66571645714405  80.01260552871055  13.59409917665077  -64.11452204899685  21.600464760590153  120.000000
8.9622  0.000000  0.000000  0.000000  -33.26554800500516  1.3895828289821073  -10.729728954060231  39.41323276728567  13.876868349699334  3.921970533047459  79.04082586675992  16.995845192959546  -63.228607168741355  21.936585887597694  120.000000
9.01965  0.000000  0.000000  0.000000  -33.27143215039559  1.4929076508207206  -11.080333631248447  39.50351982617554  14.25483711602237  4.394535182561111  78.89047043837326  20.690182983370526  -63.46266993699546  22.189818709679734  120.000000
9.0771  0.000000  0.000000  0.000000  -33.37743438342218  1.8681848614071086  -11.223066054870142  39.713703673928734  14.723208936654817  5.114729321383932  79.233226546767  24.52257748047769  -64.5270200417709  22.3477147079702  120.000000
9.13455  0.000000  0.000000  0.000000  -33.58620218344204  2.55096332428897  -11.077649319487174  40.04730975088425  15.255687046380041  6.1001950344843845  79.8511269182122  28.378986849425004  -66.20517340623698  22.416274558737026  120.000000
9.192  0.000000  0.000000  0.000000  -33.90689020470447  3.5572796348882463  -10.569062221575514  40.52457581158859  15.819255988223423  7.330584290115164  80.56559940932678  32.18917160645734  -68.29680021673309  22.40272068680706  120.000000
9.24945  0.000000  0.000000  0.000000  -34.354843026188796  4.886669959464871  -9.629241340242954  41.16562127367527  16.377220179872054  8.750237938022998  81.22308893833399  35.906788856933034  -70.60586835304517  22.304351698134326  120.000000
9.3069  0.000000  0.000000  0.000000  -34.95873778490343  6.509894057782457  -8.194026622261495  41.971299280254065  16.88180784574417  10.291034601738016  81.70809596372301  39.492829930677864  -72.95540815130956  22.10902303817247  120.000000
9.36435  0.000000  0.000000  0.000000  -35.75574632955279  8.36327005949759  -6.206557272071124  42.92399673738082  17.277853039983814  11.887579649188105  81.95305220783985  42.90894744015922  -75.20172878898934  21.80550882699369  120.000000
9.421800000000001  0.000000  0.000000  0.000000  -36.78123495631924  10.355203708465472  -3.6313880213393657  43.99658818253765  17.51564054379538  13.480764175300777  81.93632238043712  46.11777693185337  -77.24305050390693  21.395686399623468  120.000000
9.47925  0.000000  0.000000  0.000000  -38.06581241441071  12.36889412563961  -0.47338537405633013  45.15093094176492  17.559865150064486  15.019873620504464  81.66840127452424  49.0829149866647  -79.01839825540208  20.90152524629948  120.000000
